<?xml version="1.0" standalone="no"?>
<!DOCTYPE svg PUBLIC "-//W3C//DTD SVG 20010904//EN"
 "http://www.w3.org/TR/2001/REC-SVG-20010904/DTD/svg10.dtd">
<svg version="1.0" xmlns="http://www.w3.org/2000/svg"
 width="49.000000pt" height="48.000000pt" viewBox="0 0 49.000000 48.000000"
 preserveAspectRatio="xMidYMid meet">

<g transform="translate(0.000000,48.000000) scale(0.100000,-0.100000)"
fill="#252786" stroke="none">
<path d="M140 465 c0 -12 18 -15 105 -15 87 0 105 3 105 15 0 12 -18 15 -105
15 -87 0 -105 -3 -105 -15z"/>
<path d="M177 433 c-4 -3 -7 -34 -7 -69 0 -61 -2 -65 -85 -199 -47 -75 -85
-143 -85 -151 0 -12 38 -14 245 -14 204 0 245 2 245 14 0 8 -38 76 -85 151
l-85 136 0 70 c0 53 -3 69 -14 69 -11 0 -15 -18 -18 -71 l-3 -71 78 -125 c42
-69 77 -129 77 -134 0 -5 -87 -9 -195 -9 -113 0 -195 4 -195 9 0 5 34 64 75
130 l75 121 0 75 c0 69 -6 86 -23 68z"/>
<path d="M135 126 c-19 -30 -35 -58 -35 -61 0 -3 65 -5 145 -5 80 0 145 2 145
5 0 2 -12 24 -27 48 l-26 45 -34 -14 c-31 -13 -37 -12 -83 11 l-50 25 -35 -54z"/>
</g>
</svg>
