<?xml version="1.0" standalone="no"?>
<!DOCTYPE svg PUBLIC "-//W3C//DTD SVG 20010904//EN"
 "http://www.w3.org/TR/2001/REC-SVG-20010904/DTD/svg10.dtd">
<svg version="1.0" xmlns="http://www.w3.org/2000/svg"
  height="20px" widht="10px" viewBox="0 0 192 265"
 preserveAspectRatio="xMidYMid meet">

<g transform="translate(0.000000,265.000000) scale(0.100000,-0.100000)"
fill="#252786" stroke="none">
<path d="M1070 2399 c-78 -15 -141 -80 -164 -169 -31 -120 43 -248 164 -284
107 -32 223 23 273 128 35 73 35 129 1 201 -36 76 -81 111 -159 124 -34 6 -64
11 -66 10 -2 -1 -24 -5 -49 -10z"/>
<path d="M770 1878 c-32 -17 -60 -75 -53 -110 7 -35 44 -75 77 -84 56 -14 126
47 126 110 0 62 -92 114 -150 84z"/>
<path d="M807 1533 c-5 -8 7 -192 19 -315 l6 -57 -139 -198 c-76 -109 -145
-208 -153 -220 -8 -11 -49 -69 -90 -128 -243 -346 -320 -460 -317 -469 4 -11
1417 -26 1610 -18 68 3 77 6 77 23 0 10 -57 106 -127 213 -71 107 -193 295
-273 417 -80 123 -171 263 -204 313 l-58 90 7 65 c12 122 21 266 17 279 -3 9
-50 12 -187 12 -101 0 -186 -3 -188 -7z m274 -543 c10 -6 19 -15 19 -19 0 -7
56 -94 235 -366 117 -178 183 -284 177 -289 -7 -8 -1047 -8 -1055 0 -3 3 17
38 44 77 28 40 60 88 73 107 23 35 276 398 318 457 13 18 30 34 38 36 31 9
132 7 151 -3z"/>
<path d="M768 583 c-80 -112 -108 -155 -108 -167 0 -3 144 -6 320 -6 260 0
320 2 320 13 0 18 -147 217 -160 217 -6 0 -30 -18 -54 -40 -24 -22 -49 -40
-56 -40 -7 0 -45 32 -84 70 -40 39 -77 70 -83 70 -6 0 -49 -53 -95 -117z"/>
</g>
</svg>
