<?xml version="1.0" standalone="no"?>
<!DOCTYPE svg PUBLIC "-//W3C//DTD SVG 20010904//EN"
 "http://www.w3.org/TR/2001/REC-SVG-20010904/DTD/svg10.dtd">
<svg version="1.0" xmlns="http://www.w3.org/2000/svg"
 width="1226.000000pt" height="348.000000pt" viewBox="0 0 1226.000000 348.000000"
 preserveAspectRatio="xMidYMid meet">

<g transform="translate(0.000000,348.000000) scale(0.100000,-0.100000)"
fill="white" stroke="none">
<path d="M1453 3192 c-74 -27 -119 -60 -157 -117 -62 -94 -71 -189 -26 -293
55 -128 216 -208 347 -172 184 51 286 262 203 423 -72 139 -230 208 -367 159z"/>
<path d="M1045 2575 c-47 -25 -64 -45 -76 -86 -17 -54 -4 -104 36 -144 87 -86
229 -35 242 88 5 49 -18 100 -58 130 -37 26 -106 32 -144 12z"/>
<path d="M4600 2167 c-30 -7 -58 -25 -87 -54 -41 -40 -43 -46 -43 -100 0 -72
27 -114 94 -148 142 -71 316 9 316 145 0 115 -138 193 -280 157z"/>
<path d="M10490 1295 l0 -885 160 0 160 0 0 40 c0 22 2 40 6 40 3 0 26 -10 52
-21 120 -55 285 -83 443 -76 358 16 611 192 689 480 31 114 25 278 -13 385
-76 213 -239 352 -481 411 -197 48 -451 18 -638 -75 -26 -13 -50 -24 -53 -24
-3 0 -5 137 -5 305 l0 305 -160 0 -160 0 0 -885z m911 95 c177 -54 278 -180
279 -343 0 -127 -54 -228 -161 -297 -89 -57 -152 -73 -289 -73 -152 1 -256 30
-372 105 l-48 30 0 213 0 213 41 36 c53 45 167 99 244 115 33 7 65 15 70 16
37 12 180 3 236 -15z"/>
<path d="M1146 2123 l-29 -5 7 -146 c3 -81 11 -184 16 -230 l9 -82 -367 -553
c-420 -630 -467 -705 -457 -715 3 -4 454 -8 1001 -10 823 -2 994 0 994 11 0
22 -113 210 -454 757 l-327 525 5 75 c4 41 9 141 13 221 l6 146 -39 6 c-42 7
-330 7 -378 0z m327 -723 c268 -427 477 -771 477 -786 0 -16 -543 -27 -933
-18 l-316 7 16 31 c26 49 472 727 510 774 l35 43 91 -3 92 -3 28 -45z"/>
<path d="M1163 1058 c-54 -59 -213 -303 -213 -326 0 -9 91 -12 353 -12 347 0
397 3 397 22 0 24 -170 258 -188 258 -8 0 -37 -20 -64 -45 -28 -25 -56 -45
-64 -45 -8 0 -54 38 -103 85 -50 47 -92 85 -94 85 -2 0 -13 -10 -24 -22z"/>
<path d="M2735 2068 c-3 -7 -4 -382 -3 -833 l3 -820 173 -3 172 -2 0 330 0
330 485 0 486 0 -3 138 -3 137 -482 3 -483 2 0 215 0 215 570 0 570 0 0 150 0
150 -740 0 c-583 0 -742 -3 -745 -12z"/>
<path d="M7107 2074 c-4 -4 -7 -380 -7 -836 l0 -828 655 0 655 0 0 150 0 150
-480 2 -481 3 -2 680 -2 680 -166 3 c-91 1 -168 -1 -172 -4z"/>
<path d="M5965 1693 c-118 -7 -258 -44 -355 -93 -22 -11 -45 -18 -50 -15 -6 3
-10 24 -10 46 l0 39 -160 0 -160 0 0 -630 0 -630 160 0 160 0 0 423 0 423 48
35 c109 82 211 114 357 114 107 0 112 -1 187 -38 81 -39 128 -84 167 -160 42
-82 45 -111 48 -459 l4 -338 159 0 160 0 0 343 c0 188 -5 371 -10 407 -38 266
-202 447 -460 510 -75 18 -170 27 -245 23z"/>
<path d="M9330 1693 c-143 -6 -361 -42 -500 -84 -99 -30 -98 -28 -75 -96 10
-32 21 -62 25 -68 3 -5 12 -28 19 -50 8 -22 17 -50 22 -62 l8 -22 65 24 c164
59 371 89 524 74 164 -16 271 -78 322 -185 35 -76 46 -74 -170 -33 -90 16
-155 21 -295 22 -177 0 -218 -4 -345 -41 -117 -33 -220 -114 -267 -211 -23
-47 -27 -67 -27 -150 0 -82 4 -104 26 -152 109 -238 460 -330 874 -229 23 5
79 25 125 45 46 19 90 33 96 30 8 -2 13 -23 13 -50 l0 -46 158 3 157 3 3 237
c4 374 -16 581 -66 690 -12 26 -22 50 -22 53 0 4 -18 32 -41 63 -118 166 -332
246 -629 235z m205 -752 c96 -16 209 -43 223 -54 16 -13 6 -45 -22 -69 -34
-29 -176 -96 -241 -114 -107 -29 -168 -36 -276 -31 -86 4 -115 9 -155 29 -150
75 -112 215 67 247 62 12 316 6 404 -8z"/>
<path d="M4510 1040 l0 -630 160 0 160 0 0 630 0 630 -160 0 -160 0 0 -630z"/>
</g>
</svg>
