<?xml version="1.0" standalone="no"?>
<!DOCTYPE svg PUBLIC "-//W3C//DTD SVG 20010904//EN"
 "http://www.w3.org/TR/2001/REC-SVG-20010904/DTD/svg10.dtd">
<svg version="1.0" xmlns="http://www.w3.org/2000/svg"
 width="260.000000pt" height="348.000000pt" viewBox="0 0 260.000000 348.000000"
 preserveAspectRatio="xMidYMid meet">

<g transform="translate(0.000000,348.000000) scale(0.100000,-0.100000)"
fill="white" stroke="none">
<path d="M1453 3192 c-74 -27 -119 -60 -157 -117 -62 -94 -71 -189 -26 -293
55 -128 216 -208 347 -172 184 51 286 262 203 423 -72 139 -230 208 -367 159z"/>
<path d="M1045 2575 c-47 -25 -64 -45 -76 -86 -17 -54 -4 -104 36 -144 87 -86
229 -35 242 88 5 49 -18 100 -58 130 -37 26 -106 32 -144 12z"/>
<path d="M1146 2123 l-29 -5 7 -146 c3 -81 11 -184 16 -230 l9 -82 -367 -553
c-420 -630 -467 -705 -457 -715 3 -4 454 -8 1001 -10 823 -2 994 0 994 11 0
22 -113 210 -454 757 l-327 525 5 75 c4 41 9 141 13 221 l6 146 -39 6 c-42 7
-330 7 -378 0z m327 -723 c268 -427 477 -771 477 -786 0 -16 -543 -27 -933
-18 l-316 7 16 31 c26 49 472 727 510 774 l35 43 91 -3 92 -3 28 -45z"/>
<path d="M1163 1058 c-54 -59 -213 -303 -213 -326 0 -9 91 -12 353 -12 347 0
397 3 397 22 0 24 -170 258 -188 258 -8 0 -37 -20 -64 -45 -28 -25 -56 -45
-64 -45 -8 0 -54 38 -103 85 -50 47 -92 85 -94 85 -2 0 -13 -10 -24 -22z"/>

</g>
</svg>
